<svg version="1.2" xmlns="http://www.w3.org/2000/svg" viewBox="0 0 768 512">
	<title>Casual Cloud</title>
	<path fill-rule="evenodd" class="s0" d="m199 512v-0.1q-3.5 0.1-7 0.1c-106 0-192-86-192-192 0-95.4 69.6-174.6 160.8-189.5 43.9-77.9 127.4-130.5 223.2-130.5 95.8 0 179.3 52.6 223.2 130.5 91.2 14.9 160.8 94.1 160.8 189.5 0 103.7-82.2 188.2-185 191.9v0.1h-49l31-31q0 0 0 0 0 0 0-0.1c41.4-41.4 41.4-108.5 0-149.9q0 0 0 0 0 0 0 0l-75-75-43.9 43.9h-124.2l-43.9-43.9-75 75c-41.4 41.4-41.4 108.5 0 150q0 0 0 0l31 31zm441-106l-75-75 75 75-75 74.9v0.1z"/>
	<path id="Left eye" class="s0" d="m330 416c-8.8 0-16-7.2-16-16 0-8.8 7.2-16 16-16 8.8 0 16 7.2 16 16 0 8.8-7.2 16-16 16zm0 32c-8.8 0-16-7.2-16-16 0-8.8 7.2-16 16-16 8.8 0 16 7.2 16 16 0 8.8-7.2 16-16 16zm16-48v32h-32v-32z"/>
	<path id="Right eye" class="s0" d="m437 416c-8.8 0-16-7.2-16-16 0-8.8 7.2-16 16-16 8.8 0 16 7.2 16 16 0 8.8-7.2 16-16 16zm0 32c-8.8 0-16-7.2-16-16 0-8.8 7.2-16 16-16 8.8 0 16 7.2 16 16 0 8.8-7.2 16-16 16zm16-48v32h-32v-32z"/>
</svg>
